<svg id="Capa_1" data-name="Capa 1" xmlns="http://www.w3.org/2000/svg" viewBox="0 0 1738.29 645.09"><defs><style>.cls-1,.cls-4{fill:#004a98;}.cls-2{fill:#7296c6;}.cls-3{fill:#b12028;}.cls-4{stroke:#004a98;stroke-miterlimit:10;stroke-width:2.96px;}</style></defs><title>conio</title><path class="cls-1" d="M180.07,404.11s-57.66-10.49-79.2-25.39c68.29-105.43,170.54-127.48,229.67-125.5C279,271.49,207.26,327.07,180.07,404.11" transform="translate(-62.07 -253.1)"/><path class="cls-2" d="M164,469.92C107.77,465.41,70,452.25,70,452.25c-7.21,27.53-7.21,45.61-7.9,76.56,0,0,41.25,13.76,104.89,17.28" transform="translate(-62.07 -253.1)"/><path class="cls-1" d="M398.34,768.94c-42.16,10.37-81.21,16.92-144.34.63,0,0,73-4.17,137.07-23.88L398.34,770" transform="translate(-62.07 -253.1)"/><path class="cls-1" d="M370.23,674.23C417.79,660.07,440,651.06,483.5,631.8c13.55-39.72,11.33-89.35,11.33-89.35S430.53,582.92,349,604c9.1,30.62,21.24,70.22,21.24,70.22" transform="translate(-62.07 -253.1)"/><path class="cls-1" d="M194.3,624.14c-54-.39-93.39-8.29-114-12,11,34.73,51,81.79,51,81.79,42.33,3.9,78.66,5,119.34,1.23,0,0-22.44-22.45-32.69-34.74-8.68-10.63-23.64-36.32-23.64-36.32" transform="translate(-62.07 -253.1)"/><path class="cls-2" d="M194.3,624.14c27.1-.63,95.42-5.65,154.67-20.13l21.24,70.22c-1.59.51-3.12.84-4.71,1.32C324.66,687,285.63,692.61,250.06,695.2c0,0-16.58-17.19-27.46-29-12.44-13.52-28.3-42-28.3-42" transform="translate(-62.07 -253.1)"/><path class="cls-3" d="M477.35,460.91c51.17-34.49,80.71-67.27,80.71-67.27,13.28,23.65,23.52,54.59,27.19,82.27,0,0-33.59,32.27-90.53,66.43A628.2,628.2,0,0,1,427.42,577c-78.93,34.52-162.25,47.2-233.13,47.2-10.72-22.23-24.78-53.66-27.34-78.06,59.64,2.23,134-1.2,221.77-37.28a488.17,488.17,0,0,0,88.63-47.9" transform="translate(-62.07 -253.1)"/><path class="cls-1" d="M483.19,631.18c61.6-29.86,99.13-58.86,99.13-58.86-18.24,81.82-68.42,127.25-68.42,127.25S462,724,422.83,736.28c49.64-53.9,60.36-105.1,60.36-105.1" transform="translate(-62.07 -253.1)"/><path class="cls-2" d="M422.84,736.28c-9.86,3.16-20.4,6.22-31.76,9.41,0,0-13.94-46.84-21-72A673.89,673.89,0,0,0,483.2,631.19S475.51,678,422.84,736.28" transform="translate(-62.07 -253.1)"/><path class="cls-2" d="M440.3,395c33.2-23,57.62-46.57,72.32-63.63-26.23-21.7-24.91-26.44-68.39-49.82a266.76,266.76,0,0,1-54.35,63.61s19,15.38,24.49,20.7C423,374.73,440.3,395,440.3,395" transform="translate(-62.07 -253.1)"/><path class="cls-1" d="M440.3,395.07A435.78,435.78,0,0,1,305.6,457.6l-17.46-58.74a259.63,259.63,0,0,0,101.74-53.63s18.54,14.75,25.24,21.45c8.23,8.29,25.18,28.39,25.18,28.39" transform="translate(-62.07 -253.1)"/><path class="cls-2" d="M288.13,398.74c-33.2,8.77-69.55,11.21-108.07,5.38C173.75,421,168,439.81,164,469.92a415,415,0,0,0,141.58-12.44" transform="translate(-62.07 -253.1)"/><path class="cls-1" d="M167,546.09a518.22,518.22,0,0,0,160-16.31c-5.32-20.37-5.41-20.49-21.42-72.29C251.76,471.28,210.29,473,164,469.93c-5.59,33,2.95,76.16,2.95,76.16" transform="translate(-62.07 -253.1)"/><path class="cls-1" d="M827.65,490.52c-21.37,21.09-49,30.83-79,30.83-77.25,0-110-53.12-110.21-107.24-.33-54.41,35-109.6,110.21-109.6,28.27,0,55,10.72,76.4,31.82l-26.2,25.23c-13.64-13.4-32-19.62-50.2-19.62-50.18,0-71.87,37.44-71.57,72.17.3,34.47,20.19,70.46,71.57,70.46,18.2,0,38.64-7.45,52.34-21.09Z" transform="translate(-62.07 -253.1)"/><path class="cls-1" d="M990.79,443.6c0,42-28.81,76.32-76.37,76.32s-76.08-34.28-76.08-76.32,29.12-76.43,75.75-76.43,76.7,34.49,76.7,76.43m-116.18,0c0,22.3,13.34,43,39.81,43s39.78-20.73,39.78-43c0-22.05-15.47-43.38-39.78-43.38-26.11,0-39.81,21.33-39.81,43.38" transform="translate(-62.07 -253.1)"/><rect class="cls-1" x="954.8" y="55.81" width="35.99" height="207.71"/><polygon class="cls-1" points="1175.64 116.74 1113.2 264.11 1073.99 264.11 1011.29 116.74 1050.83 116.74 1071.02 165.14 1093.65 227.07 1115.91 165.77 1136.13 116.74 1175.64 116.74"/><path class="cls-1" d="M1295.9,328.92c0,28.12-42.78,28.12-42.78,0,0-28.31,42.78-28.31,42.78,0m-39.48,187.69h36.24v-147h-36.24Z" transform="translate(-62.07 -253.1)"/><path class="cls-1" d="M1421.93,409.1c-10.4-9.74-22.32-13.07-36.26-13.07-17.25,0-26.75,5.37-26.75,14.54,0,9.49,8.6,14.87,27.35,15.95,27.61,1.87,62.7,8.06,62.7,47.05,0,25.87-21.09,48.17-63,48.17-23.16,0-46.36-3.91-67.75-26.23L1336,469.82c10.42,11.42,34.16,20.1,50.57,20.34,13.64.36,26.41-6.82,26.41-17.43,0-10.12-8.3-14.36-29.12-15.47-27.67-2.07-60.6-12.35-60.6-45.49,0-33.86,35-45.85,61.77-45.85,22.87,0,40.14,4.54,57.09,19.41Z" transform="translate(-62.07 -253.1)"/><path class="cls-1" d="M1503.94,456.27c2.4,18.18,18.11,31.19,43.68,31.19,13.34,0,30.89-5,39.18-13.52l23.2,22.81c-15.48,16-40.71,23.76-63,23.76-50.45,0-80.49-31.19-80.49-78.15,0-44.58,30.32-76.67,77.85-76.67,49.06,0,79.65,30.34,74,90.58Zm79.62-29.86c-2.35-19.14-17.25-28.63-38-28.63-19.59,0-35.63,9.49-41,28.63Z" transform="translate(-62.07 -253.1)"/><path class="cls-1" d="M1762.46,355.33l26.74,20.1-16.32,20.89c11.27,12.76,15.44,27.31,15.44,43.38,0,18.15-6.85,43.63-30.94,54.71,24.37,12.2,30.34,29.66,30.34,48.41,0,40.47-30.91,65.32-73.43,65.32S1640,582.3,1640,542.82H1676c0,19,17.55,31.55,38.34,31.55s37.17-11.33,37.17-31.55-19.08-29.51-37.17-29.51c-45.76,0-74.27-27.79-74.27-73.61s33.29-74.36,74.27-74.36c11.6,0,23.53,1.59,33.59,8.41ZM1676,439.7c0,25.6,17.22,40.71,38.34,40.71,20.82,0,38-15.47,38-40.71s-17.22-41.31-38-41.31c-21.12,0-38.34,15.71-38.34,41.31" transform="translate(-62.07 -253.1)"/><path class="cls-1" d="M711.58,584.65V681.3H695.77l-1.08-9.4c-5.26,8.17-13.7,10.88-22.05,10.88-20,0-35.1-13.19-35.1-35.61,0-23.52,14.79-35.69,34.77-35.69,7.15,0,18.35,3.84,22.38,10.93V584.65ZM654.4,647.17c0,11.93,8.59,20,19.41,20,10.64,0,19.71-7.81,19.71-20,0-11.93-9.07-20-19.71-20-10.82,0-19.41,7.69-19.41,20" transform="translate(-62.07 -253.1)"/><path class="cls-1" d="M742.11,653.25c1.11,8.42,8.45,14.52,20.31,14.52,6.22,0,14.4-2.44,18.3-6.34L791.51,672c-7.24,7.45-19,11-29.33,11-23.55,0-37.49-14.48-37.49-36.33,0-20.7,14.06-35.69,36.23-35.69,22.81,0,37.08,14.12,34.43,42.27Zm37.08-14c-1.14-8.89-8-13.25-17.73-13.25-9.13,0-16.58,4.36-19.05,13.25Z" transform="translate(-62.07 -253.1)"/><rect class="cls-1" x="746.25" y="331.53" width="16.77" height="96.66"/><path class="cls-1" d="M1054.16,709.7c-17.42,17.07-39.93,25.12-64.35,25.12-62.95,0-89.54-43.39-89.84-87.4-.15-44.26,28.6-89.36,89.84-89.36,23,0,44.8,8.77,62.19,26l-21.3,20.46c-11.12-10.82-26.11-15.83-40.89-15.83-40.9,0-58.56,30.46-58.32,58.77.21,28,16.4,57.29,58.32,57.29,14.78,0,31.45-6,42.54-17.06Z" transform="translate(-62.07 -253.1)"/><path class="cls-1" d="M1158.49,611.6h28.37V730.91H1159l-1.51-17.43c-6.7,14-25.35,20.83-38.63,21.07-35.37.27-61.51-21.55-61.51-63.49,0-41.07,27.37-62.65,62.17-62.41,16,0,31.27,7.58,38,19.47Zm-71.62,59.46c0,22.8,15.71,36.32,35.36,36.32,46.42,0,46.42-72.29,0-72.29-19.65,0-35.36,13.28-35.36,36" transform="translate(-62.07 -253.1)"/><path class="cls-1" d="M1238.14,611.58l2.16,13.76c9.22-14.75,21.51-16.91,33.65-16.91,12.38,0,24.22,4.87,30.71,11.3l-13.28,25.72c-6-5.11-11.6-7.82-21.25-7.82-15.53,0-29.83,8.33-29.83,30.38v62.91h-29.54V611.58Z" transform="translate(-62.07 -253.1)"/><path class="cls-1" d="M1347.34,577.94c0,23-34.91,23-34.91,0s34.91-23.05,34.91,0m-32.21,153h29.53V611.11h-29.53Z" transform="translate(-62.07 -253.1)"/><path class="cls-1" d="M1400.1,561.69v66.1c6.94-12.35,26.62-19.14,39.21-19.14,34.82,0,60.69,21.34,60.69,62.41,0,39.24-26.35,62.4-61.44,62.4-14.54,0-29.23-4.74-38.46-19l-1.95,16.47h-27.64V561.69ZM1402,671.06c0,21.57,16,35.09,34.59,35.09,18.93,0,33.92-14.12,33.92-35.09,0-21.45-15-34.85-33.92-34.85-18.57,0-34.59,14.15-34.59,34.85" transform="translate(-62.07 -253.1)"/><path class="cls-1" d="M1546.3,681.67c1.92,14.87,14.75,25.44,35.55,25.44,10.9,0,25.17-4,32-11.08l18.87,18.66c-12.59,13.07-33.14,19.41-51.32,19.41-41.16,0-65.59-25.51-65.59-63.76,0-36.21,24.7-62.44,63.4-62.44,40,0,64.87,24.76,60.3,73.77Zm64.87-24.37c-2-15.39-14.12-23.17-31-23.17-16,0-29.08,7.78-33.38,23.17Z" transform="translate(-62.07 -253.1)"/><path class="cls-4" d="M1005.83,895.46v-86.4h25.7a33.93,33.93,0,0,1,25.28,10.68q10.38,10.68,10.39,27.24v10.56q0,16.62-10.39,27.27a34,34,0,0,1-25.28,10.65Zm3.21-83.2v80h22.49a30.73,30.73,0,0,0,23-9.85q9.49-9.85,9.49-24.87V846.8q0-14.84-9.49-24.68a30.73,30.73,0,0,0-23-9.86Z" transform="translate(-62.07 -253.1)"/><path class="cls-4" d="M1108,896.71a24.64,24.64,0,0,1-19.14-8.78q-7.82-8.79-7.81-22.14V862q0-13.93,7.75-22.93a24.62,24.62,0,0,1,19.49-9q10.68,0,17,7t6.35,19.2v4.92h-47.41v4.57q0,11.76,6.64,19.73a21.22,21.22,0,0,0,17.1,8,29.46,29.46,0,0,0,11.06-2.14,23.62,23.62,0,0,0,8.64-5.7l1.72,2.5a25.92,25.92,0,0,1-8.72,6.14A30.82,30.82,0,0,1,1108,896.71Zm.29-63.44a21.28,21.28,0,0,0-16.35,6.92q-6.37,6.9-7.21,17.47l.18.36h43.56v-2q0-9.91-5.4-16.35T1108.26,833.27Z" transform="translate(-62.07 -253.1)"/><path class="cls-4" d="M1186.48,879.74q0-5.1-4.36-9.29t-15.22-6.56q-11.46-2.43-16.59-6.26t-5.13-11.36a14.22,14.22,0,0,1,5.81-11.54q5.82-4.66,15.67-4.66,10.62,0,16.73,5a15.19,15.19,0,0,1,5.82,13l-.12.35h-2.73a13.48,13.48,0,0,0-5.31-10.71q-5.31-4.41-14.39-4.42T1153,837.16q-4.63,3.89-4.63,9a11.21,11.21,0,0,0,3.92,8.6q3.92,3.57,15.54,6.24,10.74,2.49,16.29,6.79t5.55,12a14.63,14.63,0,0,1-6.17,12.22q-6.16,4.69-16.38,4.69-11.2,0-17.59-5t-6-12.2l.12-.35h2.61q.48,7.59,6.53,11a28.81,28.81,0,0,0,14.3,3.39q8.91,0,14.13-4.16T1186.48,879.74Z" transform="translate(-62.07 -253.1)"/><path class="cls-4" d="M1204.64,863.3q0-15.25,6.41-24.24t17.8-9a24.43,24.43,0,0,1,13,3.35,24.72,24.72,0,0,1,8.75,9.17v-39.7h3.21v48.3s0,.06,0,.06v26.17a.62.62,0,0,0,0,.18v17.86h-3.09l-.12-9.91a22.73,22.73,0,0,1-8.78,8.16,27.17,27.17,0,0,1-13.06,3q-11.34,0-17.71-8.66t-6.38-23.5Zm3.32,1.25q0,13.29,5.25,21.12t15.46,7.84q8.37,0,13.89-3.77a21.48,21.48,0,0,0,8-10.06V849.29a27,27,0,0,0-7.51-11.42q-5.13-4.59-14.27-4.6-10.2,0-15.52,8.34T1208,863.3Z" transform="translate(-62.07 -253.1)"/><path class="cls-4" d="M1296.62,896.71a24.65,24.65,0,0,1-19.14-8.78q-7.8-8.79-7.8-22.14V862q0-13.93,7.74-22.93a24.65,24.65,0,0,1,19.5-9q10.68,0,17,7t6.35,19.2v4.92h-47.42v4.57q0,11.76,6.65,19.73a21.21,21.21,0,0,0,17.09,8,29.47,29.47,0,0,0,11.07-2.14,23.49,23.49,0,0,0,8.63-5.7l1.73,2.5a26,26,0,0,1-8.73,6.14A30.78,30.78,0,0,1,1296.62,896.71Zm.3-63.44a21.25,21.25,0,0,0-16.35,6.92q-6.37,6.9-7.21,17.47l.18.36h43.56v-2q0-9.91-5.4-16.35T1296.92,833.27Z" transform="translate(-62.07 -253.1)"/><path class="cls-1" d="M1445.16,890.15v5.31h-66.28v-5.31c14.95,0,16.91-10.22,16.91-22.61V804.21c0-12.39-2-21.83-16.91-21.83v-5.31l44.84-19.28h4.53V867.54C1428.25,879.93,1430.21,890.15,1445.16,890.15Z" transform="translate(-62.07 -253.1)"/><path class="cls-1" d="M1479.58,895.46V890c25.37-4.53,42.68-22,47.79-52.51-4.52,4.72-13.57,7.27-18.68,7.67-31.67,2.55-50-14.75-49-43.07.78-27.14,22.22-46,50.93-46,25,0,49.76,17.11,52.51,47.39C1568.28,863.41,1524.62,895.46,1479.58,895.46Zm48.77-99.9c-3.93-23.6-15.53-34.42-25.17-32.46-10.42,2.17-14.36,15.35-10.42,39.14,4.13,23.6,14.16,33.83,24.38,32.45C1527.17,833.32,1532.48,819.16,1528.35,795.56Z" transform="translate(-62.07 -253.1)"/><path class="cls-1" d="M1594.24,895.46V890c25.37-4.53,42.68-22,47.79-52.51-4.52,4.72-13.57,7.27-18.68,7.67-31.67,2.55-50-14.75-49-43.07.78-27.14,22.22-46,50.94-46,25,0,49.75,17.11,52.51,47.39C1682.94,863.41,1639.28,895.46,1594.24,895.46Zm48.78-99.9c-3.94-23.6-15.54-34.42-25.18-32.46-10.42,2.17-14.35,15.35-10.42,39.14,4.13,23.6,14.16,33.83,24.39,32.45C1641.84,833.32,1647.15,819.16,1643,795.56Z" transform="translate(-62.07 -253.1)"/><path class="cls-1" d="M1800.36,826.63c0,42.09-22.23,70.61-55.86,70.61s-55.66-28.52-55.66-70.61,22-70.6,55.66-70.6S1800.36,784.54,1800.36,826.63Zm-35.4-4.92c-4.72-35.79-15.34-61-28.91-57.82-13.77,3.35-18.29,32.06-13.57,67.85s15.14,58.81,28.91,56.84C1765.55,886.61,1769.68,857.51,1765,821.71Z" transform="translate(-62.07 -253.1)"/></svg>