<svg id="Capa_1" data-name="Capa 1" xmlns="http://www.w3.org/2000/svg" viewBox="0 0 736.81 858.97"><defs><style>.cls-1{fill:#fff;}</style></defs><title>logo blanco</title><path class="cls-1" d="M1567.05,331.32c45.19-21.84,72.72-43,72.72-43-13.38,59.82-50.19,93-50.19,93s-38,17.84-66.81,26.84c36.41-39.41,44.28-76.84,44.28-76.84" transform="translate(-1100.76 -54.88)"/><path class="cls-1" d="M1345.65,165.29s-42.15-7.67-57.9-18.57c49.93-77.08,124.69-93.21,167.92-91.76-37.68,13.36-90.13,54-110,110.33" transform="translate(-1100.76 -54.88)"/><path class="cls-1" d="M1338.08,213.41c-43.42-3.3-72.6-12.92-72.6-12.92-5.57,20.12-5.57,33.35-6.1,56,0,0,31.85,10.06,81,12.63" transform="translate(-1100.76 -54.88)"/><path class="cls-1" d="M1505.25,432c-30.82,7.58-59.38,12.37-105.54.47,0,0,53.41-3.06,100.22-17.47l5.32,17.8" transform="translate(-1100.76 -54.88)"/><path class="cls-1" d="M1484.69,362.79c34.78-10.35,51-16.94,82.83-31,9.91-29,8.38-71.76,8.38-71.76S1527.6,291.3,1468,306.72c6.65,22.39,16.71,56.07,16.71,56.07" transform="translate(-1100.76 -54.88)"/><path class="cls-1" d="M1372.46,327.08c-39.46-.29-84.68-7-99.77-9.66,8,25.4,37.3,59.8,37.3,59.8,31,2.86,62,3.27,91.75.52,0,0-20.9-16-28.39-25-6.35-7.78-11-26.94-11-26.94" transform="translate(-1100.76 -54.88)"/><path class="cls-1" d="M1563,206.82c37.41-25.22,59-49.18,59-49.18,9.71,17.28,17.2,39.91,19.88,60.15,0,0-24.56,23.59-66.19,48.57a459.75,459.75,0,0,1-49.21,25.31c-57.71,25.24-118.63,34.51-170.46,34.51-7.84-16.26-18.59-41.91-20.46-59.74,43.61,1.62,98.45,1.79,162.62-24.6a356.46,356.46,0,0,0,64.81-35" transform="translate(-1100.76 -54.88)"/><path class="cls-1" d="M1535.93,158.6c24.27-16.85,42.13-34.06,52.87-46.53-19.17-15.87-18.21-19.34-50-36.43a195,195,0,0,1-39.74,46.51S1513,133.4,1517,137.28c6.3,6.53,19,21.32,19,21.32" transform="translate(-1100.76 -54.88)"/><path class="cls-1" d="M1535.93,158.68a318.41,318.41,0,0,1-98.49,45.72l-12.76-43a189.78,189.78,0,0,0,74.38-39.21s21.87,2.37,26.77,7.27c6,6.06,10.1,29.17,10.1,29.17" transform="translate(-1100.76 -54.88)"/><path class="cls-1" d="M1337.42,269.06c32.21,1.78,73.49,2.89,116.84-9.21-3.84-15.45-5.06-18.7-16.63-58-38.92,10.46-68.89,11.74-102.34,9.43-4,25.05,2.13,57.77,2.13,57.77" transform="translate(-1100.76 -54.88)"/><path class="cls-1" d="M1222.38,608.38c-13.67,13.5-31.35,19.72-50.57,19.72-49.42,0-70.36-34-70.51-68.6-.21-34.81,22.41-70.13,70.51-70.13,18.09,0,35.18,6.87,48.88,20.36l-16.76,16.15c-8.73-8.57-20.47-12.55-32.12-12.55-32.11,0-46,23.95-45.79,46.17.19,22,12.92,45.08,45.79,45.08,11.65,0,24.72-4.77,33.48-13.5Z" transform="translate(-1100.76 -54.88)"/><path class="cls-1" d="M1326.76,578.37c0,26.89-18.43,48.82-48.86,48.82s-48.67-21.93-48.67-48.82,18.62-48.91,48.46-48.91,49.07,22.07,49.07,48.91m-74.33,0c0,14.26,8.53,27.52,25.47,27.52s25.45-13.26,25.45-27.52-9.9-27.76-25.45-27.76c-16.71,0-25.47,13.65-25.47,27.76" transform="translate(-1100.76 -54.88)"/><rect class="cls-1" x="242.68" y="437.31" width="23.03" height="132.89"/><polygon class="cls-1" points="383.98 476.3 344.03 570.59 318.95 570.59 278.83 476.3 304.13 476.3 317.05 507.27 331.52 546.88 345.76 507.67 358.7 476.3 383.98 476.3"/><path class="cls-1" d="M1522,505c0,18-27.38,18-27.38,0s27.38-18.1,27.38,0m-25.26,120.09h23.18V531h-23.18Z" transform="translate(-1100.76 -54.88)"/><path class="cls-1" d="M1602.6,556.29c-6.65-6.23-14.28-8.36-23.2-8.36-11,0-17.11,3.44-17.11,9.3,0,6.08,5.5,9.52,17.49,10.21,17.66,1.19,40.12,5.15,40.12,30.1,0,16.55-13.5,30.82-40.31,30.82-14.82,0-29.66-2.5-43.35-16.79l11.4-16.43c6.67,7.3,21.85,12.86,32.35,13,8.73.23,16.9-4.36,16.9-11.15,0-6.47-5.31-9.18-18.63-9.89-17.7-1.33-38.77-7.91-38.77-29.11,0-21.66,22.41-29.33,39.52-29.33,14.63,0,25.68,2.9,36.52,12.41Z" transform="translate(-1100.76 -54.88)"/><path class="cls-1" d="M1655.06,586.47c1.54,11.63,11.6,20,28,20,8.54,0,19.76-3.19,25.07-8.65l14.84,14.59c-9.9,10.2-26.05,15.2-40.31,15.2-32.28,0-51.5-20-51.5-50,0-28.52,19.4-49.06,49.81-49.06,31.39,0,51,19.42,47.33,58Zm50.94-19.1c-1.5-12.25-11-18.32-24.33-18.32-12.54,0-22.8,6.07-26.24,18.32Z" transform="translate(-1100.76 -54.88)"/><path class="cls-1" d="M1820.46,521.89l17.11,12.86-10.44,13.36c7.21,8.17,9.88,17.48,9.88,27.76,0,11.61-4.38,27.91-19.8,35,15.59,7.8,19.42,19,19.42,31,0,25.9-19.78,41.79-47,41.79s-47.52-16.53-47.52-41.79h23c0,12.15,11.22,20.19,24.53,20.19s23.77-7.25,23.77-20.19S1801.22,623,1789.65,623c-29.28,0-47.52-17.78-47.52-47.1s21.3-47.58,47.52-47.58c7.42,0,15,1,21.49,5.39Zm-55.34,54c0,16.38,11,26,24.53,26,13.32,0,24.33-9.9,24.33-26s-11-26.43-24.33-26.43c-13.52,0-24.53,10-24.53,26.43" transform="translate(-1100.76 -54.88)"/><path class="cls-1" d="M1148.12,668.61v61.84H1138l-.69-6c-3.36,5.23-8.77,7-14.11,7-12.8,0-22.45-8.44-22.45-22.78,0-15.05,9.46-22.84,22.24-22.84,4.57,0,11.74,2.46,14.32,7V668.61Zm-36.58,40c0,7.63,5.5,12.78,12.42,12.78a12.79,12.79,0,0,0,0-25.58c-6.92,0-12.42,4.92-12.42,12.8" transform="translate(-1100.76 -54.88)"/><path class="cls-1" d="M1167.66,712.5c.71,5.38,5.4,9.28,13,9.28,4,0,9.21-1.55,11.71-4l6.9,6.78c-4.63,4.77-12.13,7-18.76,7-15.07,0-24-9.27-24-23.24,0-13.24,9-22.84,23.18-22.84,14.59,0,23.73,9,22,27Zm23.72-9c-.73-5.69-5.13-8.47-11.34-8.47-5.85,0-10.61,2.78-12.19,8.47Z" transform="translate(-1100.76 -54.88)"/><rect class="cls-1" x="109.26" y="613.72" width="10.73" height="61.84"/><path class="cls-1" d="M1367.31,748.61c-11.15,10.92-25.55,16.07-41.18,16.07-40.27,0-57.28-27.76-57.48-55.92s18.3-57.16,57.48-57.16a55.93,55.93,0,0,1,39.79,16.6l-13.63,13.09c-7.11-6.92-16.7-10.13-26.16-10.13-26.16,0-37.47,19.5-37.31,37.6.13,17.92,10.49,36.66,37.31,36.66,9.46,0,20.13-3.82,27.22-10.92Z" transform="translate(-1100.76 -54.88)"/><path class="cls-1" d="M1434.05,685.85h18.15v76.33h-17.84l-1-11.15c-4.28,9-16.22,13.32-24.72,13.48-22.62.17-39.35-13.78-39.35-40.62,0-26.28,17.51-40.08,39.77-39.93,10.25,0,20,4.85,24.3,12.46Zm-45.82,38c0,14.59,10,23.24,22.62,23.24,29.7,0,29.7-46.25,0-46.25-12.57,0-22.62,8.5-22.62,23" transform="translate(-1100.76 -54.88)"/><path class="cls-1" d="M1485,685.84l1.38,8.8c5.9-9.43,13.76-10.82,21.53-10.82s15.49,3.11,19.65,7.23l-8.5,16.45a18.79,18.79,0,0,0-13.59-5c-9.94,0-19.09,5.32-19.09,19.43v40.25H1467.5V685.84Z" transform="translate(-1100.76 -54.88)"/><path class="cls-1" d="M1554.87,664.31c0,14.73-22.33,14.73-22.33,0s22.33-14.75,22.33,0m-20.6,97.88h18.89V685.53h-18.89Z" transform="translate(-1100.76 -54.88)"/><path class="cls-1" d="M1588.63,653.92v42.29c4.44-7.9,17-12.25,25.09-12.25,22.28,0,38.83,13.65,38.83,39.93,0,25.11-16.86,39.93-39.31,39.93-9.31,0-18.71-3-24.61-12.17l-1.25,10.53H1569.7V653.92Zm1.21,70c0,13.8,10.25,22.45,22.13,22.45,12.11,0,21.7-9,21.7-22.45,0-13.73-9.59-22.3-21.7-22.3a21.84,21.84,0,0,0-22.13,22.3" transform="translate(-1100.76 -54.88)"/><path class="cls-1" d="M1682.17,730.68c1.23,9.51,9.44,16.28,22.74,16.28,7,0,16.11-2.56,20.45-7.1l12.07,11.94c-8,8.36-21.2,12.42-32.83,12.42-26.33,0-42-16.32-42-40.79,0-23.16,15.8-39.95,40.56-39.95,25.56,0,41.5,15.84,38.58,47.2Zm41.5-15.59c-1.27-9.85-9-14.82-19.84-14.82-10.22,0-18.61,5-21.36,14.82Z" transform="translate(-1100.76 -54.88)"/><path class="cls-1" d="M1175.65,912.75V840.84H1197a28.23,28.23,0,0,1,21,8.89q8.64,8.89,8.64,22.67v8.79q0,13.83-8.64,22.7a28.28,28.28,0,0,1-21,8.86Zm2.67-69.24v66.58H1197a25.6,25.6,0,0,0,19.11-8.2q7.9-8.21,7.9-20.7v-8.94q0-12.35-7.9-20.54a25.56,25.56,0,0,0-19.11-8.2Z" transform="translate(-1100.76 -54.88)"/><path class="cls-1" d="M1260.65,913.79a20.51,20.51,0,0,1-15.93-7.31q-6.49-7.31-6.49-18.42V884.9q0-11.61,6.44-19.09a20.52,20.52,0,0,1,16.23-7.48q8.89,0,14.17,5.85t5.29,16v4.1H1240.9v3.8q0,9.78,5.53,16.42a17.65,17.65,0,0,0,14.22,6.64,24.5,24.5,0,0,0,9.21-1.77,19.68,19.68,0,0,0,7.19-4.75l1.43,2.08a21.42,21.42,0,0,1-7.26,5.11A25.62,25.62,0,0,1,1260.65,913.79Zm.25-52.8a17.69,17.69,0,0,0-13.61,5.76,23.43,23.43,0,0,0-6,14.54l.15.3h36.25V880q0-8.25-4.49-13.61T1260.9,861Z" transform="translate(-1100.76 -54.88)"/><path class="cls-1" d="M1326,899.66a10.51,10.51,0,0,0-3.63-7.72q-3.63-3.5-12.67-5.46-9.54-2-13.81-5.21t-4.27-9.46a11.86,11.86,0,0,1,4.84-9.61q4.85-3.87,13-3.87,8.84,0,13.93,4.14a12.67,12.67,0,0,1,4.84,10.82l-.1.3h-2.27a11.26,11.26,0,0,0-4.42-8.92q-4.43-3.67-12-3.68t-11.36,3.24a9.55,9.55,0,0,0-3.85,7.48,9.3,9.3,0,0,0,3.26,7.16q3.26,3,12.94,5.19,8.94,2.07,13.55,5.65a11.94,11.94,0,0,1,4.62,10,12.2,12.2,0,0,1-5.13,10.18q-5.15,3.9-13.64,3.9-9.33,0-14.64-4.17t-5-10.15l.1-.3h2.17q.39,6.33,5.43,9.14a24,24,0,0,0,11.9,2.81q7.41,0,11.76-3.45T1326,899.66Z" transform="translate(-1100.76 -54.88)"/><path class="cls-1" d="M1341.11,886q0-12.69,5.33-20.17a17.19,17.19,0,0,1,14.82-7.48,20.28,20.28,0,0,1,10.79,2.79,20.49,20.49,0,0,1,7.29,7.63v-33H1382v40.21a0,0,0,0,0,0,.05v21.78a.5.5,0,0,0,0,.15v14.86h-2.56l-.1-8.24a19.14,19.14,0,0,1-7.31,6.79,22.68,22.68,0,0,1-10.87,2.49q-9.44,0-14.74-7.21T1341.11,887Zm2.76,1q0,11.07,4.38,17.58t12.86,6.52a20.06,20.06,0,0,0,11.56-3.13,17.93,17.93,0,0,0,6.67-8.37V874.33a22.39,22.39,0,0,0-6.25-9.51q-4.27-3.83-11.88-3.83a14.37,14.37,0,0,0-12.91,6.94q-4.42,6.95-4.43,18.05Z" transform="translate(-1100.76 -54.88)"/><path class="cls-1" d="M1417.66,913.79a20.49,20.49,0,0,1-15.92-7.31q-6.51-7.31-6.5-18.42V884.9q0-11.61,6.45-19.09a20.48,20.48,0,0,1,16.22-7.48q8.89,0,14.18,5.85t5.28,16v4.1h-39.46v3.8q0,9.78,5.53,16.42a17.67,17.67,0,0,0,14.22,6.64,24.5,24.5,0,0,0,9.21-1.77,19.68,19.68,0,0,0,7.19-4.75l1.43,2.08a21.42,21.42,0,0,1-7.26,5.11A25.62,25.62,0,0,1,1417.66,913.79Zm.25-52.8a17.69,17.69,0,0,0-13.61,5.76,23.43,23.43,0,0,0-6,14.54l.15.3h36.25V880q0-8.25-4.49-13.61T1417.91,861Z" transform="translate(-1100.76 -54.88)"/><path class="cls-1" d="M1546.19,909.47v3.28h-41v-3.28c9.25,0,10.47-6.34,10.47-14V856.25c0-7.67-1.22-13.51-10.47-13.51v-3.29l27.76-11.93h2.8v67.94C1535.72,903.13,1536.94,909.47,1546.19,909.47Z" transform="translate(-1100.76 -54.88)"/><path class="cls-1" d="M1567.5,912.75v-3.41c15.71-2.8,26.42-13.63,29.59-32.51-2.8,2.93-8.4,4.51-11.57,4.75-19.6,1.58-30.93-9.13-30.32-26.67.49-16.8,13.76-28.49,31.54-28.49,15.46,0,30.81,10.6,32.51,29.35C1622.42,892.91,1595.39,912.75,1567.5,912.75Zm30.2-61.85c-2.44-14.62-9.62-21.31-15.59-20.09-6.45,1.34-8.89,9.49-6.45,24.23s8.77,20.94,15.1,20.09S1600.26,865.51,1597.7,850.9Z" transform="translate(-1100.76 -54.88)"/><path class="cls-1" d="M1638.49,912.75v-3.41c15.71-2.8,26.42-13.63,29.59-32.51-2.8,2.93-8.4,4.51-11.57,4.75-19.6,1.58-30.93-9.13-30.32-26.67.49-16.8,13.76-28.49,31.54-28.49,15.46,0,30.81,10.6,32.51,29.35C1693.41,892.91,1666.37,912.75,1638.49,912.75Zm30.2-61.85c-2.44-14.62-9.62-21.31-15.59-20.09-6.45,1.34-8.89,9.49-6.45,24.23s8.77,20.94,15.1,20.09S1671.24,865.51,1668.69,850.9Z" transform="translate(-1100.76 -54.88)"/><path class="cls-1" d="M1766.1,870.14c0,26.05-13.76,43.71-34.58,43.71s-34.46-17.66-34.46-43.71,13.64-43.72,34.46-43.72S1766.1,844.08,1766.1,870.14Zm-21.92-3c-2.92-22.16-9.5-37.75-17.9-35.8s-11.32,19.85-8.4,42,9.38,36.41,17.9,35.19C1744.55,907.27,1747.11,889.25,1744.18,867.09Z" transform="translate(-1100.76 -54.88)"/><path class="cls-1" d="M1428.5,160.38c-24.27,6.42-54.69,9.18-82.85,4.92-4.62,12.36-8.84,26.09-11.73,48.11a311.78,311.78,0,0,0,105-9.4" transform="translate(-1100.76 -54.88)"/><path class="cls-1" d="M1523.16,408.17c-7.2,2.3-14.92,4.54-23.22,6.87,0,0-12.21-37.88-17.39-56.25a541.08,541.08,0,0,0,86.7-32.61s-7.58,39.39-46.09,82" transform="translate(-1100.76 -54.88)"/><path class="cls-1" d="M1351.77,326.58c20.74-.46,76-5.25,121.33-15.76l13.35,52.09c-1.22.37-2.4.61-3.61,1a466,466,0,0,1-88.38,14.25s-12.7-12.46-21-21.05c-9.53-9.81-21.67-30.49-21.67-30.49" transform="translate(-1100.76 -54.88)"/><rect class="cls-1" x="255.32" y="266.47" width="6.11" height="7.45"/><path class="cls-1" d="M1524.66,407.52c4-4.62,8.23-9.11,11.81-14,1.77-2.43,3.18-5.1,4.77-7.65s3.32-5,5.1-7.4c6.52-8.83,14.25-17,18.52-27.29a37.93,37.93,0,0,0,2.43-8.53c.49-3.06.68-6.34,2-9.2a2.57,2.57,0,0,0-.9-3.42,2.51,2.51,0,0,0-3.42.89c-2.26,5.09-2.07,10.74-3.8,16a52.17,52.17,0,0,1-7.39,13.67c-3.18,4.48-6.69,8.71-10,13.09-1.82,2.38-3.59,4.81-5.26,7.3s-3.14,5.13-4.74,7.68A61.49,61.49,0,0,1,1528,396l-6.85,8a2.56,2.56,0,0,0,0,3.53,2.53,2.53,0,0,0,3.54,0Z" transform="translate(-1100.76 -54.88)"/><path class="cls-1" d="M1359,270.27a264.89,264.89,0,0,1,53.64.25l-.66-4.91c-11,2.41-22.22,3.74-33.41,5.05l.66,4.91a10,10,0,0,0,5.42-4.67,2.55,2.55,0,0,0-1.5-3.68,36.81,36.81,0,0,0-14.93-2.1c-3.19.22-3.24,4.88,0,5a234.84,234.84,0,0,0,60.15-5.58l-1.33-4.82-17.56,6.5a2.58,2.58,0,0,0-1.84,2.41,2.51,2.51,0,0,0,1.84,2.41,27.54,27.54,0,0,0,13.2-1.23c2.14-.77,2.59-4.26,0-4.82a21.42,21.42,0,0,0-10.58.31,2.51,2.51,0,0,0,.66,4.91c11.11.33,22.33.57,33.22-2,2.81-.66,2.1-4.82-.66-4.91l-14.58-.46,2.16,3.76a4.08,4.08,0,0,1,2.55-1.37c2.16-.44,2.36-3.54.59-4.57a9.46,9.46,0,0,0-3.13-1.59c-1.17-.16-2.12.65-3.18,1a23.66,23.66,0,0,1-5.21,1.08c-4,.41-8.06.48-11.83,1.93a2.52,2.52,0,0,0-1.79,2.74,2.49,2.49,0,0,0,2.45,2.17l30.5.07-1.26-4.66A145.12,145.12,0,0,1,1402.71,274l.67,4.91c5.76-1.83,11.5-3.7,17-6.09,5-2.16,10.13-4.76,13.69-9a2.54,2.54,0,0,0-1.77-4.27c-3.08-.06-6.15,1-9.1,1.82l-9.1,2.41-18.2,4.8c-3.12.82-1.8,5.56,1.33,4.82l26.32-6.2c2.68-.63,2.18-5.26-.66-4.91q-23.75,2.88-47.26,7.26c-2.88.54-2,4.79.67,4.91a70.73,70.73,0,0,0,31.3-5.82c2.35-1,1.06-4.7-1.27-4.66a203,203,0,0,0-39.68,4.55,2.5,2.5,0,1,0,1.33,4.82c11.36-1.65,22.4-4.85,33.39-8.07l-1.33-4.82c-7.58,2.79-15.57,4-23.52,5.22l1.33,4.82,40-9.11a2.53,2.53,0,0,0,1.75-3.07,2.56,2.56,0,0,0-3.08-1.75l-28.42,4.92c-2.75.48-2.15,5.23.66,4.91l34.59-3.86-.67-4.91a130.09,130.09,0,0,0-20.35,9.2c-2.06,1.15-1.26,4.88,1.27,4.65a77.47,77.47,0,0,0,19.76-4.35,2.59,2.59,0,0,0,1.83-2.41,2.51,2.51,0,0,0-1.83-2.41,26.76,26.76,0,0,0-11.13.18c-2.76.64-2.13,4.93.67,4.91,5.38,0,10.39-2.53,15.58-3.65a59.76,59.76,0,0,1,15.78-1.23l-1.26-4.66a27.09,27.09,0,0,1-5.49,2.81,2.51,2.51,0,0,0,1.33,4.83,21.89,21.89,0,0,0,9.26-3.71,9,9,0,0,1,1.06-.67c.13-.06.57-.21.57-.21s-.17-.76-.11-.94a.61.61,0,0,1,.26-.33q.39-.36,0-.06c.23,0-.39.07-.46.08a10.44,10.44,0,0,1-1.4-.05l.66,4.91a44.45,44.45,0,0,1,8.59-1.06l-.66-4.91c-.16.07-.34.09-.25.23A5.48,5.48,0,0,0,1455,257c-1.51-1.12-3.46-.68-5.21-.56l-11.3.82a2.56,2.56,0,0,0-2.5,2.5,2.52,2.52,0,0,0,2.5,2.5l11.79-.85,1.48-.11.49,0c.64,0,.47-.16-.52-.56-.11.46,1,1.51,1.34,1.76a4.93,4.93,0,0,0,4.86.87,2.5,2.5,0,0,0-.67-4.91,51.09,51.09,0,0,0-9.92,1.24,2.49,2.49,0,0,0-1.79,2.74,2.56,2.56,0,0,0,2.46,2.17c2.08.22,4.62-.2,5.87-2.07a4.19,4.19,0,0,0-1.9-6.12c-2.69-1.27-5,.2-7.26,1.65a17.14,17.14,0,0,1-7.19,2.6l1.33,4.83a33.36,33.36,0,0,0,6.69-3.32,2.52,2.52,0,0,0-1.27-4.66,65.08,65.08,0,0,0-16.18,1.21,67,67,0,0,0-7.51,2,25.32,25.32,0,0,1-7.67,1.66l.66,4.91a20.84,20.84,0,0,1,8.47-.18v-4.82a72.45,72.45,0,0,1-18.43,4.17l1.26,4.66a122.23,122.23,0,0,1,19.15-8.69,2.51,2.51,0,0,0,1.79-2.74,2.46,2.46,0,0,0-2.45-2.17l-34.59,3.86.67,4.91,28.42-4.92-1.33-4.82-40,9.11a2.53,2.53,0,0,0-1.74,3.08,2.56,2.56,0,0,0,3.07,1.74c7.95-1.2,15.94-2.43,23.52-5.22a2.5,2.5,0,1,0-1.33-4.82c-11,3.22-22,6.42-33.39,8.07l1.33,4.82a196.25,196.25,0,0,1,38.35-4.37l-1.26-4.66a65,65,0,0,1-28.77,5.14l.66,4.91q22.85-4.26,45.93-7.08l-.67-4.91-26.32,6.2,1.33,4.82,17.72-4.68,8.62-2.27c2.8-.74,5.82-2,8.73-1.9l-1.76-4.27c-3.3,3.95-8,6.25-12.68,8.24-5.15,2.21-10.52,3.89-15.86,5.59a2.5,2.5,0,0,0-1.79,2.74,2.46,2.46,0,0,0,2.45,2.17,153.55,153.55,0,0,0,42.41-11.26c2.39-1,1-4.65-1.26-4.66l-30.5-.07.67,4.91c6.42-2.46,13.61-.91,19.82-4.24h-2.52l2.2,1.29.6-4.57a9.21,9.21,0,0,0-5.54,3.67c-1.22,1.6.47,3.71,2.16,3.77l14.58.46-.67-4.91c-10.44,2.48-21.24,2.15-31.89,1.84l.67,4.91a16,16,0,0,1,7.92-.31V265a22.26,22.26,0,0,1-10.54,1.23V271l17.56-6.5a2.5,2.5,0,0,0-1.33-4.82,229,229,0,0,1-58.82,5.4v5a33,33,0,0,1,13.6,1.93l-1.49-3.68a4.78,4.78,0,0,1-2.43,2.38,2.53,2.53,0,0,0-1.79,2.74,2.47,2.47,0,0,0,2.46,2.17c11.63-1.36,23.28-2.73,34.74-5.23a2.49,2.49,0,0,0,1.79-2.74,2.55,2.55,0,0,0-2.46-2.17,264.89,264.89,0,0,0-53.64-.25,2.57,2.57,0,0,0-2.5,2.5,2.52,2.52,0,0,0,2.5,2.5Z" transform="translate(-1100.76 -54.88)"/></svg>