<?xml version="1.0" encoding="utf-8"?>
<svg viewBox="0 0 500 500" xmlns="http://www.w3.org/2000/svg">
  <g transform="matrix(0.263252, 0, 0, 0.263252, 119.095596, 87.625816)" style="">
    <path class="st0" d="M 75.576 281.263 C 75.576 281.263 -89.466 251.245 -151.116 208.584 C 44.355 -93.218 337.027 -156.322 506.272 -150.664 C 358.767 -98.369 153.405 60.734 75.576 281.263" style="fill: rgb(0, 74, 152);"/>
    <path class="st1" d="M 29.631 469.625 C -131.368 456.733 -239.562 419.035 -239.562 419.035 C -260.196 497.811 -260.196 549.603 -262.188 638.174 C -262.188 638.174 -144.101 677.548 38.068 687.628" style="fill: rgb(114, 150, 198);"/>
    <path class="st0" d="M 700.353 1325.582 C 579.709 1355.254 467.879 1373.992 287.194 1327.385 C 287.194 1327.385 496.286 1315.44 679.561 1259.003 L 700.387 1328.68" style="fill: rgb(0, 74, 152);"/>
    <path class="st0" d="M 619.902 1054.462 C 756.031 1013.951 819.608 988.135 944.141 933.027 C 982.943 819.332 976.562 677.231 976.562 677.231 C 976.562 677.231 792.497 793.074 559.105 853.461 C 585.144 941.117 619.902 1054.462 619.902 1054.462" style="fill: rgb(0, 74, 152);"/>
    <path class="st0" d="M 116.307 911.096 C -38.149 909.99 -150.99 887.367 -210.08 876.875 C -178.702 976.317 -64.03 1110.992 -64.03 1110.992 C 57.152 1122.179 161.145 1125.277 277.589 1114.532 C 277.589 1114.532 213.316 1050.292 183.992 1015.121 C 159.124 984.628 116.307 911.096 116.307 911.096" style="fill: rgb(0, 74, 152);"/>
    <path class="st1" d="M 116.307 911.096 C 193.884 909.297 389.45 894.919 559.042 853.461 L 619.84 1054.462 C 615.29 1055.916 610.897 1056.865 606.346 1058.254 C 489.461 1091.118 377.725 1107.106 275.915 1114.5 C 275.915 1114.5 228.452 1065.301 197.296 1031.426 C 161.715 992.685 116.307 911.096 116.307 911.096" style="fill: rgb(114, 150, 198);"/>
    <path class="st2" d="M 926.541 443.841 C 1073.003 345.093 1157.561 251.275 1157.561 251.275 C 1195.574 318.961 1224.899 407.533 1235.39 486.752 C 1235.39 486.752 1139.234 579.116 976.246 676.916 C 919.747 710.442 854.969 744.601 783.585 776.011 C 557.653 874.821 319.173 911.096 116.276 911.096 C 85.593 847.456 45.335 757.493 38.003 687.661 C 208.736 694.042 421.586 684.215 672.801 580.918 C 770.189 541.197 855.347 492.029 926.541 443.841" style="fill: rgb(177, 32, 40);"/>
    <path class="st0" d="M 943.256 931.225 C 1119.58 845.749 1226.986 762.74 1226.986 762.74 C 1174.782 996.952 1031.135 1126.981 1031.135 1126.981 C 1031.135 1126.981 882.681 1196.816 770.441 1232.081 C 912.574 1077.814 943.256 931.225 943.256 931.225" style="fill: rgb(0, 74, 152);"/>
    <path class="st1" d="M 770.502 1232.111 C 742.287 1241.149 712.108 1249.903 679.593 1259.034 C 679.593 1259.034 639.684 1124.96 619.397 1053.039 C 742.128 1018.914 852.125 975.653 943.288 931.258 C 943.288 931.258 921.263 1065.332 770.502 1232.111" style="fill: rgb(114, 150, 198);"/>
    <path class="st1" d="M 820.461 255.036 C 915.481 189.058 985.409 121.719 1027.466 72.869 C 952.388 10.776 956.18 -2.813 831.71 -69.741 C 790.443 -2.466 738.052 59.691 676.117 112.334 C 676.117 112.334 730.563 156.352 746.204 171.583 C 770.915 197.177 820.461 255.036 820.461 255.036" style="fill: rgb(114, 150, 198);"/>
    <path class="st0" d="M 820.461 255.384 C 719.155 325.217 589.442 393.252 434.89 434.362 L 384.931 266.222 C 495.781 236.55 594.181 182.801 676.15 112.714 C 676.15 112.714 729.203 154.929 748.385 174.112 C 771.958 197.843 820.461 255.384 820.461 255.384" style="fill: rgb(0, 74, 152);"/>
    <path class="st1" d="M 384.9 265.875 C 289.849 290.996 185.793 297.948 75.544 281.263 C 57.47 329.673 40.976 383.423 29.631 469.592 C 178.683 481.885 314.401 466.055 434.89 433.982" style="fill: rgb(114, 150, 198);"/>
    <path class="st0" d="M 38.068 687.69 C 165.602 694.391 324.545 686.649 496.223 640.988 C 480.993 582.688 480.74 582.341 434.921 434.076 C 280.813 473.542 162.125 478.379 29.661 469.687 C 13.643 564.17 38.068 687.69 38.068 687.69" style="fill: rgb(0, 74, 152);"/>
    <g/>
  </g>
</svg>