<?xml version="1.0" encoding="utf-8"?>
<!-- Generator: Adobe Illustrator 25.4.1, SVG Export Plug-In . SVG Version: 6.00 Build 0)  -->
<svg version="1.1" id="Capa_1" xmlns="http://www.w3.org/2000/svg" xmlns:xlink="http://www.w3.org/1999/xlink" x="0px" y="0px"
	 viewBox="0 0 1080 1280" style="enable-background:new 0 0 1080 1280;" xml:space="preserve">
<style type="text/css">
	.st0{fill:#004A98;}
	.st1{fill:#7296C6;}
	.st2{fill:#B12028;}
</style>
<g>
	<path class="st0" d="M397.37,217.66c0,0-52.23-9.5-71.74-23C387.49,99.15,480.11,79.18,533.67,80.97
		C486.99,97.52,422,147.87,397.37,217.66"/>
	<path class="st1" d="M382.83,277.27c-50.95-4.08-85.19-16.01-85.19-16.01c-6.53,24.93-6.53,41.32-7.16,69.35
		c0,0,37.37,12.46,95.02,15.65"/>
	<path class="st0" d="M595.09,548.15c-38.18,9.39-73.57,15.32-130.75,0.57c0,0,66.17-3.78,124.17-21.64l6.59,22.05"/>
	<path class="st0" d="M569.63,462.35c43.08-12.82,63.2-20.99,102.61-38.43c12.28-35.98,10.26-80.95,10.26-80.95
		s-58.25,36.66-132.11,55.77C558.63,426.48,569.63,462.35,569.63,462.35"/>
	<path class="st0" d="M410.26,416.98c-48.88-0.35-84.59-7.51-103.29-10.83c9.93,31.47,46.22,74.09,46.22,74.09
		c38.35,3.54,71.26,4.52,108.11,1.12c0,0-20.34-20.33-29.62-31.46C423.81,440.25,410.26,416.98,410.26,416.98"/>
	<path class="st1" d="M410.26,416.98c24.55-0.57,86.44-5.12,140.11-18.24l19.24,63.61c-1.44,0.46-2.83,0.76-4.27,1.2
		c-36.99,10.4-72.35,15.46-104.57,17.8c0,0-15.02-15.57-24.88-26.29C424.63,442.8,410.26,416.98,410.26,416.98"/>
	<path class="st2" d="M666.67,269.11c46.35-31.25,73.11-60.94,73.11-60.94c12.03,21.42,21.31,49.45,24.63,74.52
		c0,0-30.43,29.23-82.01,60.18c-17.88,10.61-38.38,21.42-60.97,31.36c-71.5,31.27-146.97,42.75-211.18,42.75
		c-9.71-20.14-22.45-48.61-24.77-70.71c54.03,2.02,121.39-1.09,200.89-33.78C617.19,299.92,644.14,284.36,666.67,269.11"/>
	<path class="st0" d="M671.96,423.35c55.8-27.05,89.79-53.32,89.79-53.32c-16.52,74.12-61.98,115.27-61.98,115.27
		s-46.98,22.1-82.5,33.26C662.25,469.74,671.96,423.35,671.96,423.35"/>
	<path class="st1" d="M617.29,518.57c-8.93,2.86-18.48,5.63-28.77,8.52c0,0-12.63-42.43-19.05-65.19
		c38.84-10.8,73.65-24.49,102.5-38.54C671.97,423.36,665,465.79,617.29,518.57"/>
	<path class="st1" d="M633.1,209.36c30.07-20.88,52.2-42.19,65.51-57.65c-23.76-19.65-22.56-23.95-61.95-45.13
		c-13.06,21.29-29.64,40.96-49.24,57.62c0,0,17.23,13.93,22.18,18.75C617.42,191.05,633.1,209.36,633.1,209.36"/>
	<path class="st0" d="M633.1,209.47c-32.06,22.1-73.11,43.63-122.02,56.64l-15.81-53.21c35.08-9.39,66.22-26.4,92.16-48.58
		c0,0,16.79,13.36,22.86,19.43C617.75,191.26,633.1,209.47,633.1,209.47"/>
	<path class="st1" d="M495.26,212.79c-30.08,7.95-63.01,10.15-97.9,4.87c-5.72,15.32-10.94,32.33-14.53,59.6
		c47.17,3.89,90.12-1.12,128.25-11.27"/>
	<path class="st0" d="M385.5,346.28c40.36,2.12,90.66-0.33,144.99-14.78c-4.82-18.45-4.9-18.56-19.4-65.48
		c-48.77,12.49-86.33,14.02-128.25,11.27C377.77,307.19,385.5,346.28,385.5,346.28"/>
	<path class="st0" d="M244.65,766.62c-16.94,16.72-38.85,24.43-62.66,24.43c-61.23,0-87.16-42.1-87.35-85
		c-0.26-43.13,27.77-86.88,87.35-86.88c22.41,0,43.59,8.5,60.57,25.22l-20.77,20c-10.81-10.62-25.36-15.55-39.8-15.55
		c-39.77,0-56.96,29.68-56.73,57.2c0.24,27.32,16.01,55.85,56.73,55.85c14.43,0,30.63-5.91,41.49-16.72L244.65,766.62z"/>
	<path class="st0" d="M373.96,729.43c0,33.32-22.84,60.49-60.54,60.49c-37.7,0-60.3-27.18-60.3-60.49
		c0-33.25,23.08-60.59,60.04-60.59C350.15,668.84,373.96,696.19,373.96,729.43 M281.87,729.43c0,17.67,10.57,34.1,31.56,34.1
		c20.98,0,31.53-16.43,31.53-34.1c0-17.48-12.27-34.39-31.53-34.39C292.73,695.04,281.87,711.95,281.87,729.43"/>
	<rect x="394.63" y="622.66" class="st0" width="28.53" height="164.64"/>
	<polygon class="st0" points="569.68,670.96 520.19,787.78 489.12,787.78 439.41,670.96 470.75,670.96 486.76,709.33 504.69,758.42 
		522.34,709.83 538.36,670.96 	"/>
	<path class="st0" d="M615.81,638.52c0,22.3-33.92,22.3-33.92,0C581.89,616.09,615.81,616.09,615.81,638.52 M584.51,787.3h28.72
		V670.77h-28.72V787.3z"/>
	<path class="st0" d="M715.7,702.08c-8.24-7.72-17.69-10.36-28.74-10.36c-13.67,0-21.2,4.26-21.2,11.53
		c0,7.53,6.81,11.79,21.67,12.64c21.88,1.48,49.7,6.38,49.7,37.3c0,20.5-16.72,38.17-49.94,38.17c-18.36,0-36.75-3.09-53.71-20.79
		l14.12-20.36c8.27,9.05,27.08,15.93,40.08,16.12c10.81,0.29,20.94-5.41,20.94-13.81c0-8.03-6.57-11.38-23.08-12.26
		c-21.93-1.64-48.04-9.79-48.04-36.06c0-26.84,27.77-36.34,48.97-36.34c18.12,0,31.82,3.6,45.25,15.38L715.7,702.08z"/>
	<path class="st0" d="M780.71,739.48c1.9,14.41,14.36,24.72,34.63,24.72c10.57,0,24.48-3.95,31.05-10.72l18.39,18.08
		c-12.26,12.65-32.27,18.84-49.94,18.84c-39.99,0-63.8-24.72-63.8-61.95c0-35.34,24.03-60.78,61.71-60.78
		c38.89,0,63.13,24.06,58.64,71.81H780.71z M843.82,715.8c-1.86-15.17-13.67-22.7-30.15-22.7c-15.53,0-28.24,7.53-32.51,22.7H843.82
		z"/>
	<path class="st0" d="M985.62,659.47l21.2,15.93l-12.93,16.55c8.93,10.12,12.24,21.65,12.24,34.39c0,14.38-5.43,34.58-24.53,43.37
		c19.31,9.67,24.05,23.51,24.05,38.37c0,32.08-24.51,51.77-58.21,51.77c-33.67,0-58.87-20.48-58.87-51.77h28.48
		c0,15.05,13.91,25,30.39,25c16.51,0,29.46-8.98,29.46-25c0-16.03-15.12-23.39-29.46-23.39c-36.27,0-58.87-22.03-58.87-58.35
		c0-36.32,26.39-58.94,58.87-58.94c9.2,0,18.65,1.26,26.63,6.67L985.62,659.47z M917.06,726.34c0,20.29,13.65,32.27,30.39,32.27
		c16.51,0,30.15-12.26,30.15-32.27c0-20.01-13.65-32.75-30.15-32.75C930.7,693.59,917.06,706.05,917.06,726.34"/>
	<path class="st0" d="M152.64,841.23v76.62h-12.53l-0.86-7.45c-4.17,6.48-10.86,8.62-17.48,8.62c-15.86,0-27.82-10.45-27.82-28.22
		c0-18.65,11.72-28.29,27.56-28.29c5.67,0,14.55,3.05,17.74,8.67v-29.94H152.64z M107.32,890.79c0,9.45,6.81,15.84,15.38,15.84
		c8.43,0,15.62-6.19,15.62-15.84c0-9.46-7.19-15.86-15.62-15.86C114.13,874.93,107.32,881.03,107.32,890.79"/>
	<path class="st0" d="M176.85,895.61c0.88,6.67,6.69,11.5,16.1,11.5c4.93,0,11.41-1.93,14.5-5.02l8.55,8.4
		c-5.74,5.91-15.03,8.7-23.24,8.7c-18.67,0-29.73-11.48-29.73-28.79c0-16.41,11.15-28.29,28.72-28.29
		c18.08,0,29.39,11.19,27.29,33.51H176.85z M206.24,884.49c-0.91-7.05-6.36-10.5-14.05-10.5c-7.24,0-13.15,3.45-15.1,10.5H206.24z"
		/>
	<rect x="229.33" y="841.22" class="st0" width="13.29" height="76.62"/>
	<path class="st0" d="M424.19,940.35c-13.81,13.53-31.65,19.91-51.02,19.91c-49.89,0-70.97-34.39-71.21-69.28
		c-0.12-35.08,22.67-70.83,71.21-70.83c18.22,0,35.51,6.95,49.3,20.58l-16.89,16.22c-8.81-8.57-20.69-12.55-32.41-12.55
		c-32.41,0-46.42,24.15-46.22,46.58c0.16,22.2,13,45.42,46.22,45.42c11.72,0,24.94-4.74,33.73-13.53L424.19,940.35z"/>
	<path class="st0" d="M506.89,862.59h22.48v94.57h-22.1l-1.19-13.81c-5.31,11.1-20.1,16.5-30.63,16.7
		c-28.03,0.21-48.75-17.08-48.75-50.32c0-32.56,21.7-49.65,49.28-49.47c12.69,0,24.79,6,30.1,15.43L506.89,862.59z M450.12,909.72
		c0,18.08,12.45,28.79,28.03,28.79c36.8,0,36.8-57.3,0-57.3C462.57,881.22,450.12,891.75,450.12,909.72"/>
	<path class="st0" d="M570.02,862.58l1.71,10.91c7.31-11.69,17.05-13.41,26.67-13.41c9.81,0,19.2,3.86,24.34,8.96l-10.53,20.39
		c-4.79-4.05-9.19-6.19-16.84-6.19c-12.31,0-23.65,6.6-23.65,24.08v49.87h-23.41v-94.6H570.02z"/>
	<path class="st0" d="M656.58,835.91c0,18.24-27.67,18.24-27.67,0C628.91,817.64,656.58,817.64,656.58,835.91 M631.05,957.18h23.41
		V862.2h-23.41V957.18z"/>
	<path class="st0" d="M698.4,823.04v52.39c5.5-9.79,21.1-15.17,31.08-15.17c27.6,0,48.11,16.91,48.11,49.47
		c0,31.1-20.89,49.47-48.7,49.47c-11.53,0-23.17-3.76-30.49-15.08l-1.55,13.05h-21.91V823.04H698.4z M699.9,909.72
		c0,17.1,12.69,27.82,27.41,27.82c15.01,0,26.89-11.19,26.89-27.82c0-17-11.88-27.63-26.89-27.63
		C712.6,882.1,699.9,893.31,699.9,909.72"/>
	<path class="st0" d="M814.29,918.13c1.53,11.79,11.69,20.17,28.17,20.17c8.65,0,19.96-3.17,25.34-8.79l14.96,14.79
		c-9.98,10.36-26.27,15.39-40.68,15.39c-32.63,0-51.99-20.22-51.99-50.54c0-28.7,19.58-49.49,50.25-49.49
		c31.67,0,51.42,19.63,47.8,58.47H814.29z M865.71,898.82c-1.57-12.19-11.19-18.36-24.58-18.36c-12.67,0-23.05,6.17-26.46,18.36
		H865.71z"/>
	<g>
		<path class="st0" d="M186.75,1143.71v-89.09h24.66c5.26,0,10.14,0.95,14.62,2.84c4.49,1.9,8.37,4.57,11.66,8.02
			c3.28,3.45,5.85,7.57,7.71,12.36c1.86,4.79,2.78,10.09,2.78,15.88v10.89c0,5.79-0.93,11.09-2.78,15.88
			c-1.86,4.79-4.43,8.91-7.71,12.36c-3.28,3.45-7.17,6.12-11.66,8.02c-4.49,1.9-9.36,2.85-14.62,2.85H186.75z M190.05,1057.92v82.49
			h21.36c4.77,0,9.21-0.89,13.31-2.66c4.1-1.77,7.64-4.24,10.62-7.4c2.98-3.16,5.31-6.93,7.01-11.32c1.69-4.38,2.54-9.19,2.54-14.41
			v-11.08c0-5.18-0.85-9.95-2.54-14.32c-1.69-4.37-4.03-8.12-7.01-11.26c-2.98-3.14-6.52-5.6-10.62-7.37
			c-4.1-1.77-8.54-2.66-13.31-2.66H190.05z"/>
		<path class="st0" d="M290.84,1144.94c-4.04,0-7.81-0.82-11.32-2.45c-3.51-1.63-6.58-3.91-9.21-6.82c-2.63-2.92-4.7-6.38-6.21-10.4
			c-1.51-4.02-2.26-8.43-2.26-13.25v-2.69c0-4.81,0.73-9.25,2.2-13.31c1.47-4.06,3.46-7.55,5.97-10.46
			c2.51-2.92,5.45-5.19,8.81-6.82c3.37-1.63,6.97-2.45,10.8-2.45c3.67,0,7.05,0.68,10.13,2.05c3.08,1.37,5.73,3.29,7.96,5.78
			c2.22,2.49,3.96,5.47,5.2,8.93c1.24,3.47,1.87,7.3,1.87,11.5v3.85h-49.63v0.92v2.69c0,4.12,0.65,7.99,1.96,11.6
			c1.31,3.61,3.11,6.75,5.42,9.42c2.3,2.67,5.03,4.78,8.17,6.33c3.14,1.55,6.53,2.33,10.16,2.33c1.88,0,3.7-0.14,5.48-0.43
			s3.48-0.77,5.11-1.47c1.63-0.69,3.2-1.62,4.71-2.78c1.51-1.16,2.96-2.64,4.34-4.44l2.33,1.65c-1.1,1.59-2.37,3.04-3.79,4.34
			c-1.43,1.31-3.05,2.43-4.86,3.37c-1.82,0.94-3.82,1.67-6.03,2.2C295.91,1144.67,293.49,1144.94,290.84,1144.94z M289.61,1079.59
			c-3.35,0-6.42,0.65-9.21,1.96c-2.79,1.31-5.25,3.11-7.37,5.42c-2.12,2.31-3.85,5.01-5.17,8.11c-1.33,3.1-2.17,6.45-2.54,10.04
			h46.14v-0.8c0-3.3-0.52-6.46-1.56-9.45c-1.04-3-2.51-5.63-4.41-7.89c-1.9-2.26-4.19-4.06-6.88-5.38
			C295.91,1080.25,292.92,1079.59,289.61,1079.59z"/>
		<path class="st0" d="M371,1127.5c0-1.51-0.29-3.04-0.86-4.59c-0.57-1.55-1.61-3.05-3.12-4.5c-1.51-1.45-3.57-2.79-6.18-4.04
			c-2.61-1.24-5.96-2.32-10.04-3.21c-3.71-0.77-6.97-1.65-9.76-2.63c-2.79-0.98-5.13-2.17-7.01-3.58c-1.88-1.41-3.28-3.08-4.22-5.02
			c-0.94-1.94-1.41-4.25-1.41-6.95c0-2.33,0.51-4.5,1.53-6.52c1.02-2.02,2.48-3.78,4.38-5.29c1.9-1.51,4.21-2.7,6.95-3.58
			c2.73-0.88,5.83-1.32,9.3-1.32c3.71,0,7.03,0.46,9.94,1.38c2.92,0.92,5.39,2.2,7.43,3.85c2.04,1.65,3.6,3.64,4.68,5.97
			c1.08,2.33,1.62,4.9,1.62,7.71h-3.37c0-2.04-0.45-4-1.35-5.87c-0.9-1.88-2.2-3.54-3.92-4.99c-1.71-1.45-3.83-2.6-6.36-3.46
			c-2.53-0.86-5.43-1.29-8.69-1.29c-3.35,0-6.21,0.4-8.6,1.19c-2.39,0.79-4.33,1.83-5.84,3.12c-1.51,1.29-2.62,2.71-3.33,4.28
			c-0.71,1.57-1.07,3.13-1.07,4.68c0,1.71,0.23,3.29,0.7,4.74c0.47,1.45,1.43,2.79,2.88,4.04c1.45,1.25,3.49,2.42,6.12,3.52
			c2.63,1.1,6.09,2.14,10.37,3.12c3.96,0.9,7.35,1.92,10.19,3.06c2.83,1.14,5.17,2.48,7.01,4.01c1.84,1.53,3.18,3.29,4.04,5.29
			c0.86,2,1.29,4.3,1.29,6.92c0,2.57-0.54,4.92-1.62,7.04c-1.08,2.12-2.63,3.95-4.65,5.48c-2.02,1.53-4.47,2.72-7.34,3.58
			c-2.88,0.86-6.09,1.29-9.64,1.29c-4,0-7.54-0.48-10.62-1.44c-3.08-0.96-5.67-2.26-7.77-3.92c-2.1-1.65-3.69-3.57-4.77-5.75
			c-1.08-2.18-1.62-4.5-1.62-6.94h3.3c0.2,2.86,0.99,5.23,2.36,7.13c1.37,1.9,3.06,3.41,5.08,4.53c2.02,1.12,4.26,1.92,6.73,2.39
			c2.47,0.47,4.9,0.7,7.31,0.7c3.26,0,6.14-0.41,8.63-1.22c2.49-0.82,4.57-1.9,6.24-3.24c1.67-1.35,2.94-2.87,3.79-4.56
			C370.57,1130.92,371,1129.21,371,1127.5z"/>
		<path class="st0" d="M389.48,1109.94c0-5.22,0.56-9.91,1.68-14.07c1.12-4.16,2.75-7.69,4.9-10.59c2.14-2.9,4.76-5.12,7.86-6.67
			c3.1-1.55,6.61-2.33,10.52-2.33c2.73,0,5.24,0.33,7.53,0.98c2.28,0.65,4.35,1.56,6.21,2.72c1.86,1.16,3.51,2.57,4.96,4.22
			c1.45,1.65,2.7,3.48,3.76,5.48v-39.96h3.3v93.99h-3.3v-10.59c-1.02,1.71-2.25,3.28-3.7,4.71c-1.45,1.43-3.12,2.67-5.02,3.73
			c-1.9,1.06-4,1.89-6.3,2.48c-2.31,0.59-4.82,0.89-7.56,0.89c-3.92,0-7.42-0.81-10.49-2.42c-3.08-1.61-5.68-3.9-7.8-6.85
			c-2.12-2.96-3.74-6.51-4.86-10.65c-1.12-4.14-1.68-8.74-1.68-13.8V1109.94z M392.9,1111.22c0,4.41,0.44,8.46,1.32,12.18
			c0.88,3.71,2.19,6.92,3.95,9.64c1.75,2.71,3.97,4.82,6.64,6.33c2.67,1.51,5.82,2.26,9.45,2.26c3.02,0,5.75-0.36,8.2-1.07
			c2.45-0.71,4.61-1.71,6.49-3c1.88-1.29,3.47-2.8,4.77-4.56c1.31-1.75,2.37-3.65,3.18-5.69v-31.02c-0.65-1.92-1.53-3.87-2.63-5.84
			c-1.1-1.98-2.54-3.77-4.31-5.38c-1.77-1.61-3.94-2.93-6.49-3.95c-2.55-1.02-5.58-1.53-9.09-1.53c-3.63,0-6.79,0.75-9.48,2.26
			c-2.69,1.51-4.93,3.61-6.7,6.3s-3.1,5.9-3.98,9.61c-0.88,3.71-1.32,7.77-1.32,12.18V1111.22z"/>
		<path class="st0" d="M484.93,1144.94c-4.04,0-7.81-0.82-11.32-2.45c-3.51-1.63-6.58-3.91-9.21-6.82c-2.63-2.92-4.7-6.38-6.21-10.4
			c-1.51-4.02-2.26-8.43-2.26-13.25v-2.69c0-4.81,0.73-9.25,2.2-13.31c1.47-4.06,3.46-7.55,5.97-10.46
			c2.51-2.92,5.45-5.19,8.81-6.82c3.37-1.63,6.97-2.45,10.8-2.45c3.67,0,7.05,0.68,10.13,2.05c3.08,1.37,5.73,3.29,7.96,5.78
			c2.22,2.49,3.96,5.47,5.2,8.93c1.24,3.47,1.87,7.3,1.87,11.5v3.85h-49.63v0.92v2.69c0,4.12,0.65,7.99,1.96,11.6
			c1.31,3.61,3.11,6.75,5.42,9.42c2.3,2.67,5.03,4.78,8.17,6.33c3.14,1.55,6.53,2.33,10.16,2.33c1.88,0,3.7-0.14,5.48-0.43
			s3.48-0.77,5.11-1.47c1.63-0.69,3.2-1.62,4.71-2.78c1.51-1.16,2.96-2.64,4.34-4.44l2.33,1.65c-1.1,1.59-2.37,3.04-3.79,4.34
			c-1.43,1.31-3.05,2.43-4.86,3.37c-1.82,0.94-3.82,1.67-6.03,2.2C490.01,1144.67,487.58,1144.94,484.93,1144.94z M483.71,1079.59
			c-3.35,0-6.42,0.65-9.21,1.96c-2.79,1.31-5.25,3.11-7.37,5.42c-2.12,2.31-3.85,5.01-5.17,8.11c-1.33,3.1-2.17,6.45-2.54,10.04
			h46.14v-0.8c0-3.3-0.52-6.46-1.56-9.45c-1.04-3-2.51-5.63-4.41-7.89c-1.9-2.26-4.19-4.06-6.88-5.38
			C490.01,1080.25,487.01,1079.59,483.71,1079.59z"/>
		<path class="st0" d="M643.13,1139.64c0,1.81,0,4.07,0,4.07h-50.84c0,0,0-2.26,0-4.07c11.47,0,12.97-7.84,12.97-17.35v-48.58
			c0-9.5-1.51-16.75-12.97-16.75c0-1.81,0-4.07,0-4.07l34.4-14.78h3.47v84.18C630.16,1131.8,631.67,1139.64,643.13,1139.64z"/>
		<path class="st0" d="M669.53,1143.71v-4.22c19.46-3.47,32.74-16.9,36.66-40.28c-3.47,3.62-10.41,5.58-14.33,5.88
			c-24.29,1.96-38.32-11.31-37.57-33.04c0.6-20.82,17.05-35.3,39.07-35.3c19.16,0,38.17,13.12,40.28,36.36
			C737.57,1119.12,704.08,1143.71,669.53,1143.71z M706.95,1067.08c-3.02-18.1-11.92-26.4-19.31-24.89c-8,1.66-11.01,11.77-8,30.02
			c3.17,18.1,10.86,25.95,18.71,24.89C706.04,1096.04,710.11,1085.18,706.95,1067.08z"/>
		<path class="st0" d="M757.48,1143.71v-4.22c19.46-3.47,32.74-16.9,36.66-40.28c-3.47,3.62-10.41,5.58-14.33,5.88
			c-24.29,1.96-38.32-11.31-37.57-33.04c0.6-20.82,17.05-35.3,39.07-35.3c19.16,0,38.17,13.12,40.28,36.36
			C825.52,1119.12,792.03,1143.71,757.48,1143.71z M794.9,1067.08c-3.02-18.1-11.92-26.4-19.31-24.89c-8,1.66-11.01,11.77-8,30.02
			c3.17,18.1,10.86,25.95,18.71,24.89C793.99,1096.04,798.06,1085.18,794.9,1067.08z"/>
		<path class="st0" d="M915.58,1090.91c0,32.29-17.05,54.16-42.85,54.16s-42.69-21.88-42.69-54.16c0-32.28,16.9-54.16,42.69-54.16
			S915.58,1058.63,915.58,1090.91z M888.43,1087.14c-3.62-27.46-11.77-46.77-22.18-44.35c-10.56,2.56-14.03,24.59-10.41,52.05
			c3.62,27.46,11.62,45.11,22.18,43.6C888.88,1136.92,892.05,1114.6,888.43,1087.14z"/>
	</g>
</g>
</svg>
