<?xml version="1.0" encoding="utf-8"?>
<svg viewBox="0 0 1080 1080" style="enable-background:new 0 0 1080 1080;" xmlns="http://www.w3.org/2000/svg" xmlns:bx="https://boxy-svg.com">
  <defs>
    <style type="text/css">
	.st0{fill:#1685B7;}
	.st0{stroke:#1685B7;}
</style>
  </defs>
  <g>
    <path class="st0" d="M317.91,353.14c0,0-92.19-16.77-126.63-40.59c109.19-168.57,272.67-203.83,367.22-200.66 C476.1,141.09,361.38,229.96,317.91,353.14"/>
    <path class="st0" d="M292.24,458.36c-89.93-7.21-150.36-28.25-150.36-28.25c-11.53,44-11.53,72.92-12.63,122.41 c0,0,65.96,22,167.71,27.62"/>
    <path class="st0" d="M666.9,936.47c-67.4,16.57-129.85,27.05-230.78,1.01c0,0,116.78-6.68,219.16-38.19l11.63,38.91"/>
    <path class="st0" d="M 621.96 785.03 C 698 762.4 733.5 747.99 803.07 717.19 C 824.74 653.68 821.18 574.32 821.18 574.32 C 816.307 563.561 704.837 583.102 588 672.75 C 500.133 742.719 604.715 788.053 619.454 785.03"/>
    <path class="st0" d="M 340.66 704.94 C 254.38 704.32 191.35 691.68 158.35 685.82 C 175.88 741.35 239.92 816.58 239.92 816.58 C 307.61 822.83 365.69 824.55 430.73 818.55 C 436.836 811.426 392.297 762.501 390.989 755.503 C 384.189 719.134 345.542 702.499 340.66 704.94"/>
    <path class="st0" d="M 340.66 704.94 C 385.853 694.613 500.666 658.731 587.97 672.75 L 621.93 785.02 C 619.38 785.84 616.93 786.37 614.39 787.13 C 549.1 805.48 486.7 814.42 429.82 818.55 C 429.82 818.55 395.783 792.323 378.393 773.393 C 358.503 751.783 340.66 704.94 340.66 704.94"/>
    <path class="st0" d="M 793.24 443.96 C 875.05 388.81 922.27 336.4 922.27 336.4 C 943.5 374.21 959.89 423.69 965.75 467.93 C 965.75 467.93 914.261 524.669 821.01 575.403 C 788.263 593.219 720.497 580.774 713.4 629.49 C 691.132 782.339 455.562 712.033 340.66 704.96 C 323.51 669.41 301.03 619.16 296.94 580.15 C 392.3 583.71 511.2 578.23 651.52 520.53 C 705.9 498.34 753.46 470.86 793.24 443.96"/>
    <path class="st0" d="M802.58,716.2c98.48-47.75,158.48-94.11,158.48-94.11C931.9,752.91,851.67,825.54,851.67,825.54 s-82.92,39.01-145.61,58.7C785.42,798.06,802.58,716.2,802.58,716.2"/>
    <path class="st0" d="M 706.07 884.25 C 690.31 889.29 673.45 894.19 655.29 899.29 C 655.29 899.29 633 824.4 621.66 784.24 C 671.026 738.312 737.602 721.319 802.58 716.22 C 803.606 716.073 845.808 777.684 717.346 876.733"/>
    <path class="st0" d="M733.99,338.5c53.08-36.85,92.14-74.46,115.63-101.75c-41.94-34.68-39.83-42.27-109.34-79.65 c-23.06,37.57-52.31,72.3-86.9,101.7c0,0,30.41,24.6,39.15,33.1C706.31,306.17,733.99,338.5,733.99,338.5"/>
    <path class="st0" d="M 733.99 338.69 C 677.4 377.7 604.95 415.7 518.63 438.66 C 498.488 444.415 464.268 352.298 490.72 344.74 C 552.64 328.17 607.6 298.14 653.38 258.99 C 653.38 258.99 708.078 275.062 718.788 285.772 C 731.948 299.032 733.99 338.69 733.99 338.69"/>
    <path class="st0" d="M 490.69 344.55 C 437.61 358.58 379.48 362.47 317.89 353.15 C 307.8 380.2 298.58 410.22 292.24 458.36 C 375.49 485.223 451.3 485.923 518.6 438.47"/>
    <path class="st0" d="M 296.96 580.15 C 396.565 666.16 457.058 594.705 551.617 565.336 C 543.117 532.766 544.22 521.3 518.62 438.48 C 432.53 460.53 366.24 463.22 292.26 458.37 C 222.43 504.144 275.051 577.622 296.96 580.15"/>
  </g>
</svg>